<svg xmlns="http://www.w3.org/2000/svg" width="193" height="37" viewBox="0 0 193 37" fill="none"><path d="M50.3435 10.8159L49.949 9.89699L50.3435 10.8159ZM142.656 10.8159L142.262 11.7348L142.656 10.8159ZM192.371 32.9287C192.884 32.7239 193.133 32.1421 192.929 31.6292L189.591 23.2708C189.387 22.7579 188.805 22.5081 188.292 22.7129C187.779 22.9177 187.529 23.4995 187.734 24.0124L190.7 31.4421L183.271 34.4085C182.758 34.6133 182.508 35.1951 182.713 35.708C182.918 36.221 183.499 36.4707 184.012 36.2659L192.371 32.9287ZM1.3945 32.9189L50.738 11.7348L49.949 9.89699L0.6055 31.0811L1.3945 32.9189ZM142.262 11.7348L191.605 32.9189L192.395 31.0811L143.051 9.89698L142.262 11.7348ZM50.738 11.7348C79.9565 -0.809299 113.043 -0.809317 142.262 11.7348L143.051 9.89698C113.329 -2.86339 79.6713 -2.86337 49.949 9.89699L50.738 11.7348Z" fill="#FE8264"></path></svg>