<svg xmlns="http://www.w3.org/2000/svg" width="80" height="80" viewBox="0 0 80 80" fill="none"><g clip-path="url(#clip0_5_870)"><path d="M38.6502 28.0035C39.1713 28.4985 40.038 28.3983 40.4341 27.8008L48.2338 16.0296C48.3188 15.9012 48.3778 15.7574 48.4072 15.6063C48.4367 15.4552 48.4361 15.2998 48.4055 15.1489C48.3749 14.998 48.3148 14.8546 48.2288 14.7269C48.1428 14.5993 48.0324 14.4898 47.9041 14.4047C47.3654 14.0477 46.6377 14.1954 46.2801 14.7344L39.2513 25.3422L35.3457 21.6338C35.1202 21.4198 34.8189 21.3042 34.5081 21.3123C34.1973 21.3204 33.9025 21.4516 33.6885 21.6771C33.5826 21.7887 33.4997 21.9201 33.4445 22.0637C33.3894 22.2074 33.3631 22.3605 33.3671 22.5144C33.3711 22.6682 33.4054 22.8197 33.468 22.9603C33.5306 23.1009 33.6203 23.2277 33.7319 23.3336C33.7313 23.3336 38.6458 27.9997 38.65 28.0035H38.6502Z" fill="#FF7D26"></path><path d="M39.4493 45.8777C39.6748 45.9806 39.9197 46.0341 40.1676 46.0345H40.1774C40.429 46.0332 40.6771 45.9765 40.9043 45.8686C58.7242 37.3937 61.7442 19.1089 62.2446 13.7067C62.3595 12.4731 61.6649 11.3245 60.5168 10.8484C56.9693 9.37562 54.5579 6.08219 54.2234 2.25344C54.1203 1.07484 53.1132 0.15625 51.9267 0.15625H51.9126L27.9051 0.297187C26.6948 0.303906 25.7113 1.22375 25.6187 2.43656C25.3234 6.26641 22.9471 9.58375 19.4174 11.0937C18.281 11.5797 17.6035 12.7344 17.7331 13.9672C18.297 19.3634 21.5312 37.6123 39.4493 45.8777ZM20.3392 13.2484C24.6673 11.3978 27.5829 7.33469 27.9532 2.64062L51.892 2.5C52.3174 7.18391 55.2746 11.2097 59.6185 13.0127C59.8126 13.0939 59.9304 13.2855 59.9115 13.4906C59.4415 18.5534 56.6296 35.6244 40.1635 43.6242C23.6029 35.8191 20.5932 18.7811 20.0635 13.7237C20.0525 13.6254 20.0733 13.5261 20.1229 13.4405C20.1726 13.3549 20.2484 13.2875 20.3393 13.2483L20.3392 13.2484Z" fill="#FF7D26"></path><path d="M23.2655 19.7448C23.4073 20.2661 24.0682 20.7433 24.7041 20.5683C25.328 20.3961 25.6973 19.7547 25.5276 19.1303C25.2302 18.0352 24.9811 16.9276 24.7812 15.8106C27.9612 13.7407 30.3296 10.6369 31.4865 7.02326L48.4102 6.92389C49.6094 10.5236 52.014 13.5994 55.2181 15.6317C55.0317 16.7519 54.7955 17.8632 54.5102 18.9623C54.4323 19.2632 54.4771 19.5828 54.6347 19.8507C54.7924 20.1186 55.05 20.3129 55.3509 20.3908C55.6519 20.4688 55.9714 20.424 56.2393 20.2663C56.5072 20.1087 56.7015 19.8511 56.7795 19.5501C57.1139 18.2605 57.3848 16.9552 57.5912 15.639C57.6475 15.2864 57.5972 14.9249 57.4467 14.6011C57.2962 14.2772 57.0524 14.0057 56.7465 13.8214C53.7617 12.0211 51.5469 9.1821 50.527 5.84904C50.2968 5.09889 49.5895 4.57764 48.8046 4.57764H48.7937L31.0749 4.68139C30.2852 4.68623 29.5785 5.21795 29.357 5.97357C28.3741 9.32123 26.1984 12.1783 23.2315 14.0186C22.6096 14.4037 22.2866 15.1208 22.408 15.8459C22.6301 17.1588 22.9163 18.46 23.2655 19.7448ZM54.4107 23.2195C53.8124 22.9719 53.1277 23.2575 52.8806 23.8555C50.1724 30.4194 45.8852 35.4095 40.1345 38.6939C34.3391 35.473 29.9899 30.5248 27.2054 23.9819C27.0834 23.6961 26.8529 23.4704 26.5647 23.3544C26.2764 23.2384 25.9539 23.2415 25.6679 23.3631C25.5263 23.4233 25.398 23.5109 25.2903 23.6207C25.1825 23.7305 25.0975 23.8605 25.0399 24.0032C24.9824 24.1459 24.9536 24.2985 24.9551 24.4524C24.9565 24.6062 24.9883 24.7583 25.0485 24.8998C28.0874 32.0398 32.8751 37.4225 39.2782 40.8972C39.545 41.043 39.8445 41.1187 40.1486 41.117C40.4527 41.1153 40.7513 41.0363 41.0165 40.8875C47.3715 37.3419 52.092 31.9122 55.0473 24.7492C55.1061 24.607 55.1362 24.4546 55.1361 24.3007C55.1359 24.1468 55.1053 23.9944 55.0462 23.8523C54.9871 23.7103 54.9005 23.5812 54.7915 23.4726C54.6824 23.3641 54.553 23.278 54.4107 23.2195ZM7.51914 60.1208C5.23336 60.1208 3.37305 61.9806 3.37305 64.267C3.37305 66.5533 5.23336 68.4131 7.51914 68.4131C9.80555 68.4131 11.666 66.5533 11.666 64.267C11.666 61.9806 9.80617 60.1208 7.51914 60.1208ZM7.51914 66.0692C6.52539 66.0692 5.7168 65.2612 5.7168 64.267C5.7168 63.2733 6.52555 62.4645 7.51914 62.4645C8.51336 62.4645 9.32227 63.2733 9.32227 64.267C9.32227 65.2612 8.51336 66.0694 7.51914 66.0694V66.0692Z" fill="#FF7D26"></path><path d="M79.1595 48.6482C77.6575 46.4412 74.6331 45.8563 72.4183 47.3445L57.0984 57.5978L53.8281 57.414L53.7445 56.5765C53.5895 54.9868 52.9039 53.4956 51.7981 52.343C50.6923 51.1905 49.2308 50.4437 47.6489 50.2229C47.6285 50.2199 47.6079 50.2174 47.5873 50.2156L31.0797 48.7688C30.5212 48.6817 28.7336 48.1682 23.8214 45.3509C21.2683 43.8867 18.3917 43.0603 15.4694 42.9479V39.8823C15.4694 38.3434 14.2181 37.0923 12.6794 37.0923H2.78984C1.25187 37.0923 0 38.3442 0 39.8823V70.077C0 71.6151 1.25187 72.867 2.78984 72.867H12.6794C14.2175 72.867 15.4694 71.6151 15.4694 70.077V69.2451L29.8992 74.7096C29.9311 74.7218 31.103 75.1599 33.2575 74.9568C33.2636 74.9562 57.2339 71.5004 57.2339 71.5004C57.24 71.4998 57.2455 71.4985 57.2516 71.4973C59.3019 71.1695 61.2293 70.306 62.8387 68.9942C62.8534 68.982 62.8675 68.9698 62.8814 68.9576L78.3667 55.0299C80.1917 53.4096 80.5328 50.6659 79.1595 48.6482ZM76.8048 53.2826L61.3361 67.1956C60.0532 68.2348 58.5204 68.9195 56.8903 69.1815L32.9316 72.6356C32.9246 72.6364 32.9177 72.6375 32.9108 72.6387L32.8992 72.6404C32.1827 72.7534 31.4361 72.7057 30.68 72.4988L15.4694 66.7392V53.356C15.4694 53.0452 15.3459 52.7472 15.1261 52.5274C14.9064 52.3076 14.6083 52.1842 14.2975 52.1842C14.1436 52.1841 13.9912 52.2144 13.849 52.2732C13.7068 52.3321 13.5776 52.4184 13.4687 52.5273C13.3599 52.6361 13.2736 52.7653 13.2147 52.9075C13.1558 53.0497 13.1256 53.2021 13.1256 53.356V70.0771C13.1255 70.1954 13.0784 70.3088 12.9947 70.3925C12.9111 70.4761 12.7977 70.5232 12.6794 70.5234H2.78984C2.67154 70.5232 2.55815 70.4761 2.47453 70.3924C2.3909 70.3087 2.34387 70.1953 2.34375 70.077V39.8823C2.34396 39.764 2.39102 39.6507 2.47464 39.5671C2.55825 39.4835 2.6716 39.4364 2.78984 39.4362H12.6794C12.7977 39.4364 12.911 39.4834 12.9947 39.567C13.0783 39.6506 13.1254 39.764 13.1256 39.8823V48.0623C13.1256 48.3731 13.2491 48.6712 13.4689 48.8909C13.6886 49.1107 13.9867 49.2342 14.2975 49.2342C14.6083 49.2342 14.9064 49.1107 15.1261 48.8909C15.3459 48.6712 15.4694 48.3731 15.4694 48.0623V45.2943C17.9834 45.4053 20.4566 46.1231 22.655 47.3848C28.5797 50.7826 30.2344 51.017 30.7781 51.0938C30.7989 51.097 30.8191 51.0987 30.8398 51.1012L47.3492 52.5478C48.4052 52.7018 49.3792 53.2052 50.1156 53.9775C50.8521 54.7498 51.3086 55.7466 51.4123 56.8087L51.4747 57.4329L29.3719 58.7978C29.0121 58.7725 28.6612 58.6746 28.3403 58.51C28.0194 58.3454 27.7351 58.1175 27.5047 57.8401C27.4062 57.7219 27.2854 57.6242 27.1491 57.5527C27.0129 57.4811 26.8639 57.4372 26.7106 57.4233C26.5573 57.4094 26.4029 57.4259 26.256 57.4717C26.1091 57.5176 25.9727 57.5919 25.8545 57.6906C25.7363 57.789 25.6386 57.9099 25.567 58.0461C25.4955 58.1824 25.4515 58.3314 25.4376 58.4847C25.4238 58.638 25.4402 58.7925 25.4861 58.9394C25.532 59.0863 25.6064 59.2227 25.705 59.3409C26.565 60.3724 27.7784 60.9895 29.1192 61.1287C29.8431 61.2043 52.7637 59.7017 52.7637 59.7017L57.3584 59.9598C57.6125 59.9741 57.8644 59.9051 58.0756 59.7632L73.7237 49.2909C74.8731 48.5188 76.4422 48.8215 77.2217 49.9665C77.9339 51.0138 77.757 52.4373 76.8048 53.2826Z" fill="#FF7D26"></path></g><defs><clipPath id="clip0_5_870"><rect width="80" height="80" fill="white"></rect></clipPath></defs></svg>